# xmcd CD database file
#
# Track frame offsets:
#	150
#	16354
#	64506
#	129465
#	181043
#	248768
#	269265
#
# Disc length: 4208 seconds
#
# Revision: 0
# Processed by: cddbd v1.5PL3 Copyright (c) Steve Scherf et al.
# Submitted via: CDex 1.51
#
DISCID=53106e07
DTITLE=Mahavishnu Orchestra - Bird To Boston
DYEAR=1972
DGENRE=Jazz
TTITLE0=Celestrial Terrestrial Commuters
TTITLE1=The Noonward Race
TTITLE2=Meeting Of The Spritual
TTITLE3=You Konw You Konw
TTITLE4=Dance Of The Maya
TTITLE5=Sanctuary
TTITLE6=The Noonward Race
EXTD=YEAR: 1972
EXTT0=
EXTT1=
EXTT2=
EXTT3=
EXTT4=
EXTT5=
EXTT6=
PLAYORDER=
